#!OML:ASF H:\Male1\Project 1\Capture day 1\Session 1\Male1.ASF
:FULLY-SPECIFIED
:DEGREES
212
root 6.82113 15.0887 0.0669606 -190.724 76.0086 -198.103
lowerback 22.8995 -1.92758 -1.43812
upperback 8.22719 -2.03793 0.267965
thorax -3.68733 -0.709866 1.60205
lowerneck -13.5493 4.32578 8.30913
upperneck 2.75066 5.24806 -11.078
head 3.54443 2.24417 -4.38164
rclavicle 1.0138e-014 -1.39149e-014
rhumerus -57.8093 21.6977 -78.5676
rradius 86.7608
rwrist -24.1418
rhand -14.0549 8.29963
rfingers 7.12502
rthumb 12.0762 -21.3319
lclavicle 1.0138e-014 -1.39149e-014
lhumerus -40.4217 -7.42162 72.088
lradius 106.217
lwrist 19.7108
lhand -33.2648 12.2125
lfingers 7.12502
lthumb -6.4699 42.0937
rfemur -29.8395 4.30275 22.1196
rtibia 43.5944
rfoot -20.9324 -20.9582
rtoes -29.3647
lfemur -28.2417 -9.97296 -25.4241
ltibia 66.0183
lfoot -24.2071 18.1137
ltoes -21.7151
213
root 6.9625 15.0086 0.0879664 -180.979 76.8088 -188.824
lowerback 23.1664 -2.07198 0.639806
upperback 8.00559 -1.74427 1.07278
thorax -4.11882 -0.557286 1.22073
lowerneck -13.0491 4.31654 8.68962
upperneck 2.24614 5.21524 -11.6225
head 3.33856 2.23406 -4.62474
rclavicle -4.49253e-014 -5.1684e-015
rhumerus -56.8446 20.901 -80.2422
rradius 86.311
rwrist -23.645
rhand -15.2415 8.5969
rfingers 7.12502
rthumb 10.9318 -21.0985
lclavicle -4.49253e-014 -5.1684e-015
lhumerus -40.2897 -6.49894 73.8712
lradius 103.977
lwrist 21.4661
lhand -33.4409 13.0238
lfingers 7.12502
lthumb -6.63981 42.8997
rfemur -30.7875 4.2707 25.0321
rtibia 44.8786
rfoot -21.8032 -20.6691
rtoes -29.0041
lfemur -30.7121 -9.79509 -22.3676
ltibia 67.3635
lfoot -23.8212 17.4159
ltoes -23.7322
214
root 7.13623 14.918 0.0926882 -181.171 77.0739 -189.093
lowerback 23.5228 -2.07726 0.616495
upperback 8.22484 -1.70221 1.32293
thorax -4.04882 -0.526827 1.49802
lowerneck -13.557 4.39997 9.0302
upperneck 1.94462 5.28512 -12.3767
head 3.37353 2.23822 -4.90764
rclavicle 2.54444e-014 -3.33958e-014
rhumerus -54.1672 20.1917 -81.081
rradius 84.7838
rwrist -23.1394
rhand -16.1292 9.16507
rfingers 7.12502
rthumb 10.0755 -20.5737
lclavicle 2.54444e-014 -3.33958e-014
lhumerus -39.536 -5.3016 75.8169
lradius 101.973
lwrist 24.4702
lhand -35.0341 17.0554
lfingers 7.12502
lthumb -8.17771 46.8772
rfemur -31.0481 3.22356 25.3988
rtibia 46.4775
rfoot -22.8068 -19.6352
rtoes -29.7719
lfemur -31.8684 -10.3172 -22.1136
ltibia 68.3746
lfoot -24.0745 16.5473
ltoes -24.7842
215
root 7.312 14.81 0.0914337 -179.499 77.5438 -187.472
lowerback 23.7502 -2.08986 0.81472
upperback 8.30044 -1.63082 1.70912
thorax -4.07422 -0.48872 1.78785
lowerneck -13.3011 4.61803 9.67067
upperneck 1.3076 5.52733 -13.4176
head 3.22704 2.34969 -5.32713
rclavicle 3.1408e-014 9.93923e-015
rhumerus -51.0667 19.8216 -81.8889
rradius 82.5495
rwrist -22.4616
rhand -16.6391 9.57194
rfingers 7.12502
rthumb 9.58361 -20.1901
lclavicle 3.1408e-014 9.93923e-015
lhumerus -39.1206 -3.75996 77.6457
lradius 100.258
lwrist 27.8864
lhand -35.1798 18.6563
lfingers 7.12502
lthumb -8.31832 48.4725
rfemur -31.3754 2.45649 26.1691
rtibia 48.1989
rfoot -23.6954 -18.6031
rtoes -30.9304
lfemur -33.2405 -10.7593 -21.3399
ltibia 69.5524
lfoot -24.5586 15.6784
ltoes -25.5232
216
root 7.49208 14.7014 0.0804123 -175.398 78.0651 -183.403
lowerback 23.8099 -2.13256 1.60516
upperback 8.40992 -1.45791 2.22012
thorax -3.9957 -0.394589 1.84344
lowerneck -13.1063 4.87095 10.4323
upperneck 0.51982 5.79946 -14.7272
head 3.07132 2.47541 -5.85246
rclavicle 1.82882e-014 -2.8625e-014
rhumerus -47.2182 19.8383 -82.016
rradius 79.8281
rwrist -20.3071
rhand -17.6486 9.6692
rfingers 7.12502
rthumb 8.60948 -20.1353
lclavicle 1.82882e-014 -2.8625e-014
lhumerus -38.6097 -2.08135 79.3211
lradius 98.528
lwrist 30.8097
lhand -34.9903 19.65
lfingers 7.12502
lthumb -8.13544 49.4734
rfemur -31.7683 1.70601 27.432
rtibia 50.1163
rfoot -24.5565 -17.611
rtoes -31.7568
lfemur -34.7593 -11.14 -20.054
ltibia 70.703
lfoot -24.8942 15.2662
ltoes -26.5967
217
root 7.67346 14.5982 0.0623103 -169.899 78.6056 -177.911
lowerback 23.8233 -2.14993 2.67832
upperback 8.47879 -1.18487 2.81893
thorax -3.94168 -0.248405 1.80673
lowerneck -13.017 5.09078 10.9834
upperneck -0.143977 6.05669 -15.994
head 2.96899 2.59404 -6.3324
rclavicle 4.77083e-015 -9.54166e-015
rhumerus -43.1491 19.9368 -81.0673
rradius 77.9508
rwrist -18.3137
rhand -17.3717 9.89408
rfingers 7.12502
rthumb 8.87668 -19.8992
lclavicle 4.77083e-015 -9.54166e-015
lhumerus -38.3577 -0.438299 80.9371
lradius 96.9107
lwrist 33.4215
lhand -34.7507 20.1367
lfingers 7.12502
lthumb -7.90413 49.969
rfemur -32.1139 1.08546 28.8567
rtibia 51.9827
rfoot -25.0253 -16.6869
rtoes -32.474
lfemur -36.4979 -11.2404 -18.6146
ltibia 71.9776
lfoot -25.0017 15.141
ltoes -27.5586
218
root 7.8515 14.4906 0.0353208 -164.459 79.1976 -172.35
lowerback 24.0058 -2.13354 3.62151
upperback 8.48817 -0.883196 3.42734
thorax -4.02848 -0.0901195 1.85315
lowerneck -12.9869 5.42341 11.3193
upperneck -0.547776 6.50223 -17.0625
head 2.97155 2.80547 -6.69653
rclavicle -1.59028e-014 -3.10104e-014
rhumerus -39.4597 20.7659 -78.9533
rradius 77.8728
rwrist -16.4175
rhand -16.494 11.3114
rfingers 7.12502
rthumb 9.72361 -18.4441
lclavicle -1.59028e-014 -3.10104e-014
lhumerus -38.7159 1.24597 82.4469
lradius 95.8985
lwrist 35.6261
lhand -36.2085 22.5507
lfingers 7.12502
lthumb -9.31099 52.3251
rfemur -32.2876 0.79605 30.0301
rtibia 53.7494
rfoot -25.2364 -15.7799
rtoes -33.3156
lfemur -38.3741 -10.9058 -17.4626
ltibia 73.3289
lfoot -24.939 15.0685
ltoes -27.6862
219
root 8.03306 14.3872 -0.00643086 -159.429 79.8328 -167.12
lowerback 24.3349 -2.17251 4.46896
upperback 8.37093 -0.67011 3.91386
thorax -4.32266 0.0174398 1.85157
lowerneck -12.6637 5.90208 11.8479
upperneck -0.9643 7.13446 -18.1544
head 2.96782 3.1227 -7.08977
rclavicle -8.74653e-015 3.73715e-014
rhumerus -35.8586 22.8381 -75.5461
rradius 78.9011
rwrist -14.8204
rhand -15.7268 12.615
rfingers 7.12502
rthumb 10.4637 -17.1046
lclavicle -8.74653e-015 3.73715e-014
lhumerus -39.8461 3.26789 83.4843
lradius 96.0934
lwrist 39.4945
lhand -37.2174 24.4671
lfingers 7.12502
lthumb -10.2843 54.1957
rfemur -32.2009 0.612387 30.8529
rtibia 55.3195
rfoot -25.5727 -14.7375
rtoes -33.8749
lfemur -40.2812 -10.2138 -16.7599
ltibia 74.6504
lfoot -24.8053 14.8574
ltoes -27.0593
220
root 8.22455 14.3043 -0.0622287 -153.421 80.492 -160.928
lowerback 24.5263 -2.30323 5.49066
upperback 8.19347 -0.554315 4.25085
thorax -4.61499 0.0730799 1.61411
lowerneck -12.2705 6.42927 12.4714
upperneck -1.28349 7.82249 -19.0935
head 2.99688 3.47162 -7.44599
rclavicle -2.38542e-015 5.725e-014
rhumerus -31.1714 24.1419 -70.9082
rradius 80.2083
rwrist -12.9651
rhand -14.677 12.6167
rfingers 7.12502
rthumb 11.4763 -17.0492
lclavicle -2.38542e-015 5.725e-014
lhumerus -42.2602 5.77679 83.5831
lradius 96.3398
lwrist 41.5657
lhand -38.1517 22.2768
lfingers 7.12502
lthumb -11.1856 51.9586
rfemur -31.7904 0.463851 31.6057
rtibia 56.4832
rfoot -25.5378 -14.0003
rtoes -34.5833
lfemur -42.1963 -9.21604 -16.2535
ltibia 75.789
lfoot -24.5757 14.4076
ltoes -26.232
221
root 8.42409 14.2404 -0.124742 -145.86 81.2439 -153.337
lowerback 24.4068 -2.39059 6.52857
upperback 7.99588 -0.423419 4.47579
thorax -4.77231 0.130178 1.23653
lowerneck -12.3827 6.94169 12.7591
upperneck -0.990588 8.52215 -19.4023
head 3.24521 3.79369 -7.52146
rclavicle 5.56597e-015 7.15625e-015
rhumerus -25.8245 25.5582 -64.936
rradius 81.006
rwrist -12.8727
rhand -14.3082 12.3103
rfingers 7.12502
rthumb 11.8319 -17.3354
lclavicle 5.56597e-015 7.15625e-015
lhumerus -45.7161 7.8311 83.068
lradius 96.6858
lwrist 42.0101
lhand -37.5487 19.9754
lfingers 7.12502
lthumb -10.6039 49.6878
rfemur -31.2428 0.611566 32.3175
rtibia 57.2233
rfoot -25.5642 -13.3749
rtoes -34.1792
lfemur -44.3092 -7.91674 -15.8954
ltibia 76.744
lfoot -24.3472 13.87
ltoes -25.7949
222
root 8.65083 14.2124 -0.192078 -139.245 82.3945 -146.231
lowerback 24.8121 -2.32942 7.11854
upperback 7.7233 -0.172736 4.44492
thorax -5.26626 0.229535 0.809971
lowerneck -12.0525 7.35958 13.2002
upperneck -0.878366 9.0993 -19.8292
head 3.36754 4.07838 -7.68247
rclavicle 1.82882e-014 1.82882e-014
rhumerus -20.849 25.1898 -58.5579
rradius 82.1717
rwrist -13.4748
rhand -13.3171 11.2305
rfingers 7.12502
rthumb 12.7875 -18.3579
lclavicle 1.82882e-014 1.82882e-014
lhumerus -50.239 9.22107 81.7439
lradius 95.5054
lwrist 37.4144
lhand -37.2918 16.5676
lfingers 7.12502
lthumb -10.3561 46.2926
rfemur -29.6095 1.04644 32.4696
rtibia 57.2333
rfoot -25.9755 -13.0322
rtoes -34.7716
lfemur -45.5027 -6.50991 -16.2639
ltibia 77.2086
lfoot -24.2703 13.4694
ltoes -25.9231
